<svg xmlns="http://www.w3.org/2000/svg" xmlns:xlink="http://www.w3.org/1999/xlink" width="756" zoomAndPan="magnify" viewBox="0 0 567 567.000005" height="756" preserveAspectRatio="xMidYMid meet" version="1.0"><defs><g/><clipPath id="dcc06c1ff6"><path d="M 0.363281 0.863281 L 460.636719 0.863281 L 460.636719 461.136719 L 0.363281 461.136719 Z M 0.363281 0.863281 " clip-rule="nonzero"/></clipPath><clipPath id="40fb9ea0c8"><path d="M 230.5 0.863281 C 103.398438 0.863281 0.363281 103.902344 0.363281 231 C 0.363281 358.101562 103.398438 461.136719 230.5 461.136719 C 357.601562 461.136719 460.636719 358.101562 460.636719 231 C 460.636719 103.902344 357.601562 0.863281 230.5 0.863281 Z M 230.5 0.863281 " clip-rule="nonzero"/></clipPath><clipPath id="f63fc569b3"><path d="M 0.363281 0.863281 L 460.636719 0.863281 L 460.636719 461.136719 L 0.363281 461.136719 Z M 0.363281 0.863281 " clip-rule="nonzero"/></clipPath><clipPath id="1abc907244"><path d="M 230.5 0.863281 C 103.398438 0.863281 0.363281 103.902344 0.363281 231 C 0.363281 358.101562 103.398438 461.136719 230.5 461.136719 C 357.601562 461.136719 460.636719 358.101562 460.636719 231 C 460.636719 103.902344 357.601562 0.863281 230.5 0.863281 Z M 230.5 0.863281 " clip-rule="nonzero"/></clipPath><clipPath id="005343efa1"><rect x="0" width="461" y="0" height="462"/></clipPath><clipPath id="38b5d1dfb4"><rect x="0" width="403" y="0" height="376"/></clipPath><clipPath id="61809178c9"><path d="M 161.644531 223.125 L 300.5625 223.125 L 300.5625 340.496094 L 161.644531 340.496094 Z M 161.644531 223.125 " clip-rule="nonzero"/></clipPath><clipPath id="b1e532b87c"><path d="M 170.628906 223.125 L 291.429688 223.125 C 293.8125 223.125 296.097656 224.070312 297.785156 225.757812 C 299.46875 227.441406 300.414062 229.726562 300.414062 232.109375 L 300.414062 331.511719 C 300.414062 333.894531 299.46875 336.179688 297.785156 337.867188 C 296.097656 339.550781 293.8125 340.496094 291.429688 340.496094 L 170.628906 340.496094 C 168.246094 340.496094 165.960938 339.550781 164.273438 337.867188 C 162.589844 336.179688 161.644531 333.894531 161.644531 331.511719 L 161.644531 232.109375 C 161.644531 229.726562 162.589844 227.441406 164.273438 225.757812 C 165.960938 224.070312 168.246094 223.125 170.628906 223.125 Z M 170.628906 223.125 " clip-rule="nonzero"/></clipPath><clipPath id="93d9e39bad"><path d="M 0.644531 0.125 L 139.5625 0.125 L 139.5625 117.496094 L 0.644531 117.496094 Z M 0.644531 0.125 " clip-rule="nonzero"/></clipPath><clipPath id="764ebdda58"><path d="M 9.628906 0.125 L 130.429688 0.125 C 132.8125 0.125 135.097656 1.070312 136.785156 2.757812 C 138.46875 4.441406 139.414062 6.726562 139.414062 9.109375 L 139.414062 108.511719 C 139.414062 110.894531 138.46875 113.179688 136.785156 114.867188 C 135.097656 116.550781 132.8125 117.496094 130.429688 117.496094 L 9.628906 117.496094 C 7.246094 117.496094 4.960938 116.550781 3.273438 114.867188 C 1.589844 113.179688 0.644531 110.894531 0.644531 108.511719 L 0.644531 9.109375 C 0.644531 6.726562 1.589844 4.441406 3.273438 2.757812 C 4.960938 1.070312 7.246094 0.125 9.628906 0.125 Z M 9.628906 0.125 " clip-rule="nonzero"/></clipPath><clipPath id="d0c0ce7b6a"><rect x="0" width="140" y="0" height="118"/></clipPath><clipPath id="3c7e0d1014"><path d="M 179 211.480469 L 287 211.480469 L 287 282 L 179 282 Z M 179 211.480469 " clip-rule="nonzero"/></clipPath><clipPath id="8e8e960313"><rect x="0" width="461" y="0" height="462"/></clipPath></defs><g transform="matrix(1, 0, 0, 1, 53, 52)"><g clip-path="url(#8e8e960313)"><g clip-path="url(#dcc06c1ff6)"><g clip-path="url(#40fb9ea0c8)"><g transform="matrix(1, 0, 0, 1, -0.000000000000014211, -0.000000000000035527)"><g clip-path="url(#005343efa1)"><g clip-path="url(#f63fc569b3)"><g clip-path="url(#1abc907244)"><path fill="#373643" d="M 0.363281 0.863281 L 460.636719 0.863281 L 460.636719 461.136719 L 0.363281 461.136719 Z M 0.363281 0.863281 " fill-opacity="1" fill-rule="nonzero"/></g></g></g></g></g></g><g transform="matrix(1, 0, 0, 1, 29, 43)"><g clip-path="url(#38b5d1dfb4)"><g fill="#ffffff" fill-opacity="1"><g transform="translate(0.871578, 296.384666)"><g><path d="M 162.6875 -31.21875 C 168.09375 -31.21875 172.304688 -29.5 175.328125 -26.0625 C 178.347656 -22.632812 179.859375 -18.941406 179.859375 -14.984375 C 179.859375 -11.242188 178.453125 -7.8125 175.640625 -4.6875 C 172.828125 -1.5625 168.507812 0 162.6875 0 L 38.71875 0 C 32.46875 0 27.46875 -1.816406 23.71875 -5.453125 C 19.976562 -9.097656 18.109375 -13.523438 18.109375 -18.734375 L 18.109375 -180.484375 C 18.109375 -185.472656 19.976562 -189.789062 23.71875 -193.4375 C 27.46875 -197.082031 32.46875 -198.90625 38.71875 -198.90625 L 162.6875 -198.90625 C 168.300781 -198.90625 172.460938 -197.394531 175.171875 -194.375 C 177.878906 -191.351562 179.234375 -187.867188 179.234375 -183.921875 C 179.234375 -180.171875 177.828125 -176.628906 175.015625 -173.296875 C 172.203125 -169.960938 168.09375 -168.296875 162.6875 -168.296875 L 53.703125 -168.296875 L 53.703125 -113.65625 L 157.0625 -113.65625 C 162.476562 -113.65625 166.535156 -112.039062 169.234375 -108.8125 C 171.941406 -105.59375 173.296875 -102.003906 173.296875 -98.046875 C 173.296875 -94.296875 171.941406 -90.859375 169.234375 -87.734375 C 166.535156 -84.617188 162.476562 -83.0625 157.0625 -83.0625 L 53.703125 -83.0625 L 53.703125 -31.21875 Z M 162.6875 -31.21875 "/></g></g></g><g fill="#ffffff" fill-opacity="1"><g transform="translate(200.399106, 296.384666)"><g><path d="M 2.1875 -47.15625 C 0.726562 -53.1875 2.179688 -57.972656 6.546875 -61.515625 C 10.921875 -65.054688 15.816406 -66.828125 21.234375 -66.828125 C 25.398438 -66.828125 29.09375 -65.835938 32.3125 -63.859375 C 35.539062 -61.878906 37.570312 -58.804688 38.40625 -54.640625 C 40.695312 -47.984375 45.015625 -42.832031 51.359375 -39.1875 C 57.710938 -35.539062 64.84375 -33.039062 72.75 -31.6875 C 80.664062 -30.332031 88.054688 -29.65625 94.921875 -29.65625 C 100.335938 -29.65625 106.269531 -30.070312 112.71875 -30.90625 C 119.175781 -31.738281 125.316406 -33.25 131.140625 -35.4375 C 136.972656 -37.625 141.757812 -40.691406 145.5 -44.640625 C 149.25 -48.597656 151.125 -53.703125 151.125 -59.953125 C 151.125 -66.609375 148.363281 -71.5 142.84375 -74.625 C 137.332031 -77.75 130.304688 -79.988281 121.765625 -81.34375 C 113.234375 -82.695312 104.285156 -83.6875 94.921875 -84.3125 C 84.304688 -85.144531 73.640625 -86.390625 62.921875 -88.046875 C 52.203125 -89.710938 42.414062 -92.421875 33.5625 -96.171875 C 24.71875 -99.921875 17.585938 -105.382812 12.171875 -112.5625 C 6.765625 -119.75 4.0625 -129.273438 4.0625 -141.140625 C 4.0625 -151.753906 6.765625 -160.910156 12.171875 -168.609375 C 17.585938 -176.316406 24.664062 -182.613281 33.40625 -187.5 C 42.15625 -192.394531 51.628906 -196.039062 61.828125 -198.4375 C 72.023438 -200.832031 82.015625 -202.03125 91.796875 -202.03125 C 102.617188 -202.03125 113.960938 -200.78125 125.828125 -198.28125 C 137.703125 -195.78125 148.582031 -191.351562 158.46875 -185 C 168.351562 -178.65625 175.691406 -169.757812 180.484375 -158.3125 C 182.148438 -152.476562 180.953125 -147.632812 176.890625 -143.78125 C 172.828125 -139.9375 168.09375 -138.015625 162.6875 -138.015625 C 159.351562 -138.015625 156.175781 -138.796875 153.15625 -140.359375 C 150.132812 -141.921875 148 -144.050781 146.75 -146.75 C 144.257812 -153.207031 139.890625 -158 133.640625 -161.125 C 127.398438 -164.25 120.53125 -166.273438 113.03125 -167.203125 C 105.539062 -168.140625 98.566406 -168.609375 92.109375 -168.609375 C 87.953125 -168.609375 83.007812 -168.191406 77.28125 -167.359375 C 71.550781 -166.523438 65.976562 -165.066406 60.5625 -162.984375 C 55.15625 -160.910156 50.628906 -158.050781 46.984375 -154.40625 C 43.347656 -150.757812 41.53125 -146.234375 41.53125 -140.828125 C 41.53125 -134.160156 44.128906 -129.160156 49.328125 -125.828125 C 54.535156 -122.503906 61.457031 -120.21875 70.09375 -118.96875 C 78.738281 -117.71875 88.160156 -116.675781 98.359375 -115.84375 C 109.179688 -114.800781 119.953125 -113.601562 130.671875 -112.25 C 141.390625 -110.894531 151.117188 -108.5 159.859375 -105.0625 C 168.609375 -101.632812 175.582031 -96.429688 180.78125 -89.453125 C 185.988281 -82.484375 188.59375 -72.753906 188.59375 -60.265625 C 188.59375 -47.773438 185.625 -37.46875 179.6875 -29.34375 C 173.757812 -21.226562 166.007812 -14.773438 156.4375 -9.984375 C 146.863281 -5.203125 136.660156 -1.820312 125.828125 0.15625 C 115.003906 2.132812 104.703125 3.125 94.921875 3.125 C 86.804688 3.125 77.957031 2.34375 68.375 0.78125 C 58.800781 -0.78125 49.488281 -3.484375 40.4375 -7.328125 C 31.382812 -11.179688 23.421875 -16.332031 16.546875 -22.78125 C 9.679688 -29.238281 4.894531 -37.363281 2.1875 -47.15625 Z M 2.1875 -47.15625 "/></g></g></g></g></g><g clip-path="url(#61809178c9)"><g clip-path="url(#b1e532b87c)"><g transform="matrix(1, 0, 0, 1, 161, 223)"><g clip-path="url(#d0c0ce7b6a)"><g clip-path="url(#93d9e39bad)"><g clip-path="url(#764ebdda58)"><path fill="#373643" d="M 0.644531 0.125 L 139.5625 0.125 L 139.5625 117.496094 L 0.644531 117.496094 Z M 0.644531 0.125 " fill-opacity="1" fill-rule="nonzero"/></g></g></g></g></g></g><path fill="#ffd013" d="M 174.035156 303.613281 C 175.332031 303.476562 176.679688 303.535156 177.984375 303.535156 L 189.320312 303.535156 C 195.476562 303.523438 195.117188 304.53125 195.082031 310.648438 L 195.078125 330.90625 C 195.078125 333.933594 196.207031 338.886719 192.113281 339.292969 C 189.835938 339.511719 174.003906 339.753906 172.75 338.9375 C 170.675781 337.582031 171.167969 334.929688 171.167969 332.800781 L 171.164062 313.5625 C 171.164062 310.195312 169.945312 304.417969 174.035156 303.613281 Z M 174.035156 303.613281 " fill-opacity="1" fill-rule="nonzero"/><g clip-path="url(#3c7e0d1014)"><path fill="#ffd013" d="M 282.820312 211.664062 C 284.582031 211.484375 287.121094 211.921875 286.757812 214.242188 C 286.566406 215.460938 279.648438 229.328125 278.699219 231.027344 C 276.820312 234.390625 274.335938 230.527344 273.082031 228.835938 C 268.644531 232.4375 264.5 236.4375 260.324219 240.339844 L 244.859375 254.546875 C 239.238281 259.6875 239.890625 258.144531 232.75 256.613281 C 227.636719 255.515625 221.734375 254.203125 216.585938 253.445312 C 215.292969 254.441406 214.019531 255.605469 212.804688 256.695312 L 191.683594 275.773438 C 189.226562 277.984375 186.113281 282.082031 182.714844 281.632812 C 180.84375 281.117188 179.539062 279.203125 179.917969 277.265625 C 180.269531 275.457031 182.371094 274.050781 183.652344 272.886719 L 203.96875 254.5 C 205.726562 252.933594 207.464844 251.355469 209.1875 249.753906 C 215.140625 244.214844 214.011719 245.207031 221.835938 246.679688 C 227.449219 247.738281 233.03125 248.90625 238.628906 250.027344 C 240.5 248.414062 242.21875 246.582031 244.0625 244.925781 C 252.285156 237.539062 260.421875 230.019531 268.464844 222.433594 C 267.382812 221.308594 263.78125 216.917969 263.542969 215.546875 C 263.058594 212.769531 269.25 213.019531 270.785156 212.867188 Z M 282.820312 211.664062 " fill-opacity="1" fill-rule="nonzero"/></g><path fill="#ffd013" d="M 205.03125 287 C 209.503906 286.808594 218.976562 286.53125 223.3125 287.0625 C 226.9375 287.507812 225.980469 292.65625 225.980469 295.140625 L 225.992188 332.546875 C 225.996094 335.28125 226.605469 338.773438 222.96875 339.320312 C 221.679688 339.46875 220.335938 339.398438 219.042969 339.398438 L 207.929688 339.402344 C 201.535156 339.457031 202.242188 338.109375 202.25 331.796875 L 202.285156 299.058594 C 202.292969 295.464844 200.714844 287.824219 205.03125 287 Z M 205.03125 287 " fill-opacity="1" fill-rule="nonzero"/><path fill="#ffd013" d="M 235.582031 272.082031 C 240.554688 271.890625 249.003906 271.644531 253.914062 272.085938 C 257.75 272.429688 256.722656 277.578125 256.71875 280.167969 L 256.722656 321.234375 C 256.71875 326.097656 256.863281 330.996094 256.71875 335.847656 C 256.667969 337.617188 256.035156 338.785156 254.195312 339.226562 C 252.753906 339.449219 251.28125 339.398438 249.824219 339.398438 L 239.152344 339.410156 C 231.757812 339.417969 233.058594 337.347656 233.058594 331.066406 L 233.058594 290.375 C 233.058594 285.398438 232.925781 280.382812 233.070312 275.40625 C 233.121094 273.636719 233.808594 272.5625 235.582031 272.082031 Z M 235.582031 272.082031 " fill-opacity="1" fill-rule="nonzero"/><path fill="#ffd013" d="M 266.578125 244.335938 C 267.453125 244.195312 268.445312 244.277344 269.335938 244.277344 L 282.234375 244.277344 C 288.339844 244.269531 289.679688 243.511719 289.671875 250.265625 L 289.664062 329.03125 C 289.667969 332.761719 291.046875 338.722656 286.371094 339.382812 C 282.496094 339.496094 278.589844 339.398438 274.710938 339.398438 C 271.90625 339.398438 264.90625 340.503906 263.921875 337.0625 C 263.628906 336.027344 263.808594 331.515625 263.808594 330.109375 L 263.8125 254.425781 C 263.808594 251.058594 262.578125 245.300781 266.578125 244.335938 Z M 266.578125 244.335938 " fill-opacity="1" fill-rule="nonzero"/></g></g></svg>